<svg width="16" height="16" viewBox="0 0 16 16" fill="none" xmlns="http://www.w3.org/2000/svg">
<path d="M16 0H0V16H10.6667L16 10.3188V0Z" fill="#0B0B0B"/>
<path fill-rule="evenodd" clip-rule="evenodd" d="M7.99645 2.12267C7.98289 2.14885 7.97546 2.58267 7.97787 3.20936C7.98237 4.39398 7.92517 4.2485 8.41598 4.32326C9.077 4.42394 9.77631 4.81177 10.1018 5.25816C10.1897 5.3786 10.2177 5.37933 10.3499 5.26463C10.408 5.21423 10.7155 4.95047 11.0332 4.6785C11.3509 4.40656 11.6162 4.17801 11.6226 4.17066C11.6291 4.16333 11.6795 4.12202 11.7346 4.07885C11.8615 3.97954 11.8611 3.97554 11.7038 3.79075C10.872 2.8134 9.61355 2.20011 8.22339 2.09459C8.03983 2.08064 8.01673 2.08351 7.99645 2.12267ZM4.05397 5.40205C4.00727 5.41498 3.99555 5.43284 3.99753 5.48813C4.03721 6.59982 4.49909 7.42804 5.42089 8.04052C5.90644 8.36315 6.42136 8.5786 7.70379 8.99577C8.9962 9.41619 9.57132 9.81137 9.57132 10.2791C9.57132 10.3751 9.61789 10.3794 10.6834 10.3809C11.8577 10.3826 11.779 10.3976 11.7537 10.1772C11.6998 9.70661 11.6944 9.67575 11.6218 9.41989C11.2791 8.21271 10.4274 7.53353 8.47493 6.91035C7.13324 6.48211 6.72307 6.29597 6.43971 5.98676C6.33391 5.87131 6.19966 5.61743 6.19963 5.53276C6.19959 5.39743 6.22842 5.40118 5.12594 5.39314C4.56878 5.38906 4.08639 5.39309 4.05397 5.40205ZM5.08855 10.7781C4.85022 10.9816 4.53851 11.2476 4.39586 11.3692C3.81352 11.8656 3.83399 11.7736 4.21737 12.1717C5.08357 13.071 6.45395 13.6812 7.60769 13.6812C7.91079 13.6812 7.81296 11.5203 7.50821 11.4841C6.74778 11.3937 6.0895 11.0634 5.68551 10.5694C5.52263 10.3703 5.59645 10.3444 5.08855 10.7781Z" fill="#FCFCFC"/>
</svg>
